<svg width="25" height="25" viewBox="0 0 25 25" fill="none" xmlns="http://www.w3.org/2000/svg">
<mask id="path-1-outside-1_160_2" maskUnits="userSpaceOnUse" x="0" y="0" width="25" height="25" fill="black">
<rect fill="white" width="25" height="25"/>
<path fill-rule="evenodd" clip-rule="evenodd" d="M17.75 1C21.4779 1 24.5 4.02208 24.5 7.75V17.75C24.5 21.4779 21.4779 24.5 17.75 24.5H7.75C4.02208 24.5 1 21.4779 1 17.75V7.75C1 4.02208 4.02208 1 7.75 1H17.75ZM17.75 2.5H7.75C4.85051 2.5 2.5 4.85051 2.5 7.75V17.75C2.5 20.6495 4.85051 23 7.75 23H17.75C20.6495 23 23 20.6495 23 17.75V7.75C23 4.85051 20.6495 2.5 17.75 2.5ZM13.4932 6.64823C13.4435 6.28215 13.1297 6 12.75 6L12.6482 6.00685L12.5506 6.02679C12.2332 6.11411 12 6.40482 12 6.75V11.999L6.75 12L6.64823 12.0068C6.28215 12.0565 6 12.3703 6 12.75L6.00685 12.8518C6.05651 13.2178 6.3703 13.5 6.75 13.5L12 13.499V18.75L12.0068 18.8518C12.0565 19.2178 12.3703 19.5 12.75 19.5L12.8518 19.4932C13.2178 19.4435 13.5 19.1297 13.5 18.75V13.5H18.75L18.8518 13.4932C19.2178 13.4435 19.5 13.1297 19.5 12.75L19.4932 12.6482C19.4435 12.2822 19.1297 12 18.75 12H13.5V6.75L13.4932 6.64823Z"/>
</mask>
<path fill-rule="evenodd" clip-rule="evenodd" d="M17.75 1C21.4779 1 24.5 4.02208 24.5 7.75V17.75C24.5 21.4779 21.4779 24.5 17.75 24.5H7.75C4.02208 24.5 1 21.4779 1 17.75V7.75C1 4.02208 4.02208 1 7.75 1H17.75ZM17.75 2.5H7.75C4.85051 2.5 2.5 4.85051 2.5 7.75V17.75C2.5 20.6495 4.85051 23 7.75 23H17.75C20.6495 23 23 20.6495 23 17.75V7.75C23 4.85051 20.6495 2.5 17.75 2.5ZM13.4932 6.64823C13.4435 6.28215 13.1297 6 12.75 6L12.6482 6.00685L12.5506 6.02679C12.2332 6.11411 12 6.40482 12 6.75V11.999L6.75 12L6.64823 12.0068C6.28215 12.0565 6 12.3703 6 12.75L6.00685 12.8518C6.05651 13.2178 6.3703 13.5 6.75 13.5L12 13.499V18.75L12.0068 18.8518C12.0565 19.2178 12.3703 19.5 12.75 19.5L12.8518 19.4932C13.2178 19.4435 13.5 19.1297 13.5 18.75V13.5H18.75L18.8518 13.4932C19.2178 13.4435 19.5 13.1297 19.5 12.75L19.4932 12.6482C19.4435 12.2822 19.1297 12 18.75 12H13.5V6.75L13.4932 6.64823Z" fill="#262626"/>
<path d="M12.75 6V5.6H12.7366L12.7232 5.6009L12.75 6ZM13.4932 6.64823L13.8923 6.62138L13.8913 6.60787L13.8895 6.59446L13.4932 6.64823ZM12.6482 6.00685L12.6214 5.60775L12.5945 5.60956L12.5682 5.61494L12.6482 6.00685ZM12.5506 6.02679L12.4705 5.63489L12.4574 5.63757L12.4445 5.64112L12.5506 6.02679ZM12 11.999L12.0001 12.399L12.4 12.3989V11.999H12ZM6.75 12L6.74992 11.6L6.73652 11.6L6.72315 11.6009L6.75 12ZM6.64823 12.0068L6.62138 11.6077L6.60787 11.6087L6.59446 11.6105L6.64823 12.0068ZM6 12.75H5.6V12.7634L5.6009 12.7768L6 12.75ZM6.00685 12.8518L5.60775 12.8786L5.60866 12.8921L5.61048 12.9055L6.00685 12.8518ZM6.75 13.5L6.75 13.9L6.75008 13.9L6.75 13.5ZM12 13.499H12.4V13.0989L11.9999 13.099L12 13.499ZM12 18.75H11.6V18.7634L11.6009 18.7768L12 18.75ZM12.0068 18.8518L11.6077 18.8786L11.6087 18.8921L11.6105 18.9055L12.0068 18.8518ZM12.75 19.5V19.9H12.7634L12.7769 19.8991L12.75 19.5ZM12.8518 19.4932L12.8786 19.8923L12.8921 19.8913L12.9055 19.8895L12.8518 19.4932ZM13.5 13.5V13.1H13.1V13.5H13.5ZM18.75 13.5V13.9H18.7634L18.7768 13.8991L18.75 13.5ZM18.8518 13.4932L18.8786 13.8923L18.8921 13.8913L18.9055 13.8895L18.8518 13.4932ZM19.5 12.75H19.9V12.7366L19.8991 12.7231L19.5 12.75ZM19.4932 12.6482L19.8923 12.6214L19.8913 12.6079L19.8895 12.5945L19.4932 12.6482ZM13.5 12H13.1V12.4H13.5V12ZM13.5 6.75H13.9V6.73656L13.8991 6.72315L13.5 6.75ZM24.9 7.75C24.9 3.80116 21.6988 0.6 17.75 0.6V1.4C21.257 1.4 24.1 4.24299 24.1 7.75H24.9ZM24.9 17.75V7.75H24.1V17.75H24.9ZM17.75 24.9C21.6988 24.9 24.9 21.6988 24.9 17.75H24.1C24.1 21.257 21.257 24.1 17.75 24.1V24.9ZM7.75 24.9H17.75V24.1H7.75V24.9ZM0.6 17.75C0.6 21.6988 3.80116 24.9 7.75 24.9V24.1C4.24299 24.1 1.4 21.257 1.4 17.75H0.6ZM0.6 7.75V17.75H1.4V7.75H0.6ZM7.75 0.6C3.80116 0.6 0.6 3.80116 0.6 7.75H1.4C1.4 4.24299 4.24299 1.4 7.75 1.4V0.6ZM17.75 0.6H7.75V1.4H17.75V0.6ZM7.75 2.9H17.75V2.1H7.75V2.9ZM2.9 7.75C2.9 5.07142 5.07142 2.9 7.75 2.9V2.1C4.62959 2.1 2.1 4.62959 2.1 7.75H2.9ZM2.9 17.75V7.75H2.1V17.75H2.9ZM7.75 22.6C5.07142 22.6 2.9 20.4286 2.9 17.75H2.1C2.1 20.8704 4.62959 23.4 7.75 23.4V22.6ZM17.75 22.6H7.75V23.4H17.75V22.6ZM22.6 17.75C22.6 20.4286 20.4286 22.6 17.75 22.6V23.4C20.8704 23.4 23.4 20.8704 23.4 17.75H22.6ZM22.6 7.75V17.75H23.4V7.75H22.6ZM17.75 2.9C20.4286 2.9 22.6 5.07142 22.6 7.75H23.4C23.4 4.62959 20.8704 2.1 17.75 2.1V2.9ZM12.75 6.4C12.9269 6.4 13.0737 6.53156 13.0968 6.702L13.8895 6.59446C13.8133 6.03275 13.3325 5.6 12.75 5.6V6.4ZM12.6751 6.40594L12.7768 6.3991L12.7232 5.6009L12.6214 5.60775L12.6751 6.40594ZM12.6307 6.41869L12.7283 6.39875L12.5682 5.61494L12.4705 5.63489L12.6307 6.41869ZM12.4 6.75C12.4 6.58949 12.5084 6.45326 12.6567 6.41247L12.4445 5.64112C11.958 5.77495 11.6 6.22016 11.6 6.75H12.4ZM12.4 11.999V6.75H11.6V11.999H12.4ZM6.75008 12.4L12.0001 12.399L11.9999 11.599L6.74992 11.6L6.75008 12.4ZM6.67508 12.4059L6.77685 12.3991L6.72315 11.6009L6.62138 11.6077L6.67508 12.4059ZM6.4 12.75C6.4 12.5731 6.53156 12.4263 6.702 12.4032L6.59446 11.6105C6.03275 11.6867 5.6 12.1675 5.6 12.75H6.4ZM6.40594 12.8249L6.3991 12.7232L5.6009 12.7768L5.60775 12.8786L6.40594 12.8249ZM6.75 13.1C6.57314 13.1 6.42634 12.9684 6.40322 12.798L5.61048 12.9055C5.68668 13.4672 6.16747 13.9 6.75 13.9V13.1ZM11.9999 13.099L6.74992 13.1L6.75008 13.9L12.0001 13.899L11.9999 13.099ZM12.4 18.75V13.499H11.6V18.75H12.4ZM12.4059 18.8249L12.3991 18.7232L11.6009 18.7768L11.6077 18.8786L12.4059 18.8249ZM12.75 19.1C12.5731 19.1 12.4263 18.9684 12.4032 18.798L11.6105 18.9055C11.6867 19.4672 12.1675 19.9 12.75 19.9V19.1ZM12.8249 19.0941L12.7231 19.1009L12.7769 19.8991L12.8786 19.8923L12.8249 19.0941ZM13.1 18.75C13.1 18.9269 12.9684 19.0737 12.798 19.0968L12.9055 19.8895C13.4672 19.8133 13.9 19.3325 13.9 18.75H13.1ZM13.1 13.5V18.75H13.9V13.5H13.1ZM18.75 13.1H13.5V13.9H18.75V13.1ZM18.8249 13.0941L18.7232 13.1009L18.7768 13.8991L18.8786 13.8923L18.8249 13.0941ZM19.1 12.75C19.1 12.9269 18.9684 13.0737 18.798 13.0968L18.9055 13.8895C19.4672 13.8133 19.9 13.3325 19.9 12.75H19.1ZM19.0941 12.6751L19.1009 12.7769L19.8991 12.7231L19.8923 12.6214L19.0941 12.6751ZM18.75 12.4C18.9269 12.4 19.0737 12.5316 19.0968 12.702L19.8895 12.5945C19.8133 12.0328 19.3325 11.6 18.75 11.6V12.4ZM13.5 12.4H18.75V11.6H13.5V12.4ZM13.1 6.75V12H13.9V6.75H13.1ZM13.0941 6.67508L13.1009 6.77685L13.8991 6.72315L13.8923 6.62138L13.0941 6.67508Z" fill="#262626" mask="url(#path-1-outside-1_160_2)"/>
</svg>
